<?xml version="1.0" encoding="utf-8"?>
<!-- Generator: Adobe Illustrator 25.0.0, SVG Export Plug-In . SVG Version: 6.00 Build 0)  -->
<svg version="1.1" id="Layer_1" xmlns="http://www.w3.org/2000/svg" xmlns:xlink="http://www.w3.org/1999/xlink" x="0px" y="0px"
	 viewBox="0 0 128 128" style="enable-background:new 0 0 128 128;" xml:space="preserve">
<style type="text/css">
	.st0{fill:url(#SVGID_1_);}
	.st1{fill:#2C4D9D;}
	.st2{fill:#FFFFFF;}
	.st3{fill:#262262;}
</style>
<linearGradient id="SVGID_1_" gradientUnits="userSpaceOnUse" x1="35.4604" y1="57" x2="84.9179" y2="57">
	<stop  offset="0" style="stop-color:#262262"/>
	<stop  offset="6.872653e-03" style="stop-color:#272364"/>
	<stop  offset="0.0723" style="stop-color:#2B2976"/>
	<stop  offset="0.1391" style="stop-color:#2D2D84"/>
	<stop  offset="0.2078" style="stop-color:#2E2F8D"/>
	<stop  offset="0.2809" style="stop-color:#2E3192"/>
	<stop  offset="0.3177" style="stop-color:#2D3F99"/>
	<stop  offset="0.4457" style="stop-color:#2C6BB4"/>
	<stop  offset="0.5508" style="stop-color:#2A8BCB"/>
	<stop  offset="0.6278" style="stop-color:#28A1DB"/>
	<stop  offset="0.6685" style="stop-color:#27AAE1"/>
	<stop  offset="0.8876" style="stop-color:#262262"/>
	<stop  offset="1" style="stop-color:#262262"/>
</linearGradient>
<path class="st0" d="M81.63,33.87c-4.73,0-8.56,2.02-8.56,4.52v0.17c-3.93-2.95-8.82-4.69-14.14-4.69
	c-12.95,0-23.47,10.36-23.47,23.13c0,12.77,10.51,23.13,23.47,23.13c5.32,0,10.22-1.74,14.14-4.69v0.17c0,2.5,3.83,4.52,8.56,4.52
	c0,0,2.39,0,2.39,0c1.24-0.11,0.84-3.84,0.81-4.54c-0.1-2.29-0.38-4.56-0.67-6.83c-0.68-5.3-0.13-10.73-0.13-16.05
	c0-6.07,0-12.14,0-18.21c0-0.03,0-0.63,0-0.63C84.03,33.87,81.63,33.87,81.63,33.87z M82.37,58.02c-0.36,6.2-4.04,11.52-9.29,14.3
	c-2.46,1.3-5.27,2.04-8.28,2.04c-9.72,0-17.6-7.77-17.6-17.35c0-9.58,7.89-17.35,17.6-17.35c3,0,5.82,0.74,8.28,2.04
	c5.26,2.78,8.93,8.1,9.29,14.3c0.02,0.34,0.03,0.68,0.03,1.02C82.4,57.34,82.38,57.68,82.37,58.02z"/>
<path class="st1" d="M82.37,55.98c-0.36-6.2-4.04-11.52-9.29-14.3c-2.46-1.3-5.27-2.04-8.28-2.04c-9.21,0-16.77,6.99-17.53,15.88
	c0.75-7.25,6.96-12.91,14.51-12.91c8.06,0,14.59,6.44,14.59,14.38s-6.53,14.38-14.59,14.38c-7.55,0-13.76-5.66-14.51-12.91
	c0.76,8.89,8.31,15.88,17.53,15.88c3,0,5.82-0.74,8.28-2.04c5.26-2.78,8.93-8.1,9.29-14.3c0.02-0.34,0.03-0.68,0.03-1.02
	C82.4,56.66,82.38,56.32,82.37,55.98z"/>
<g>
	<g>
		<path class="st2" d="M45.86,62.75c0.03-0.01,0.06,0.02,0.09,0.08c0.02,0.05,0.05,0.13,0.09,0.24c0.04,0.1,0.07,0.18,0.09,0.24
			c0.02,0.05,0.06,0.13,0.12,0.23c0.06,0.1,0.1,0.18,0.12,0.23c0.04,0.08-0.1,0.26-0.4,0.57c-0.3,0.31-0.42,0.54-0.35,0.67
			c0.05,0.11,0.2,0.39,0.48,0.83c0.17,0.27,0.26,0.4,0.44,0.66c0.32,0.45,0.52,0.7,0.57,0.76c0.08,0.09,0.33,0.06,0.73-0.1
			c0.4-0.16,0.62-0.22,0.66-0.17c0.28,0.32,0.42,0.48,0.73,0.79c0.04,0.05,0.05,0.08,0.03,0.11c-0.02,0.02-0.08,0.05-0.18,0.08
			c-1.11,0.43-1.69,0.61-2.88,0.9c-0.24,0.05-0.95,0.21-2.18,0.33c-0.21,0.01-0.51,0.04-0.91,0.08c-0.11,0.02-0.19,0-0.22-0.04
			c-0.05-0.07-0.11-0.17-0.19-0.31c-0.08-0.14-0.14-0.24-0.18-0.31c-0.04-0.06-0.11-0.16-0.21-0.28c-0.1-0.12-0.16-0.21-0.2-0.28
			c-0.02-0.03,0-0.1,0.05-0.21c0.08-0.16,0.5-1.04,1.46-2.41C44.97,63.5,45.84,62.75,45.86,62.75z M44.84,65.78
			c-0.07,0.04-0.3,0.35-0.66,0.96c-0.35,0.59-0.55,1.02-0.63,1.24c1.65-0.1,2.46-0.3,2.52-0.34c0.07-0.06,0.03-0.2-0.11-0.42
			c-0.01-0.01-0.11-0.15-0.29-0.43c-0.12-0.18-0.18-0.27-0.3-0.45C45.1,65.91,44.93,65.72,44.84,65.78z"/>
		<path class="st2" d="M42.86,58.06c0.54-0.03,1.01,0.14,1.45,0.48c0.46,0.36,0.73,0.8,0.84,1.37c0.07,0.38,0.06,0.73-0.03,1.06
			c-0.06,0.14-0.11,0.28-0.17,0.43c0.02,0.03,0.1,0.03,0.25,0c0.15-0.03,0.23-0.03,0.24,0.01c0.11,0.36,0.17,0.54,0.3,0.9
			c0.01,0.03,0,0.06-0.03,0.07c0,0-0.02,0-0.07,0.02c-0.42,0.11-1.21,0.37-2.36,0.79c-0.47,0.17-1.15,0.45-2.04,0.85
			c-0.57,0.25-0.81,0.37-0.74,0.34c-0.07,0.02-0.13-0.01-0.17-0.11c-0.06-0.13-0.13-0.34-0.23-0.62c-0.02-0.05-0.07-0.16-0.13-0.33
			c-0.06-0.14-0.1-0.25-0.13-0.34c-0.02-0.06,0-0.1,0.06-0.12c0.09-0.03,0.23-0.05,0.41-0.09c0.19-0.03,0.33-0.06,0.42-0.09
			c0.14-0.04,0.34-0.09,0.62-0.15c0.28-0.06,0.48-0.12,0.62-0.16c0.1-0.03,0.14-0.07,0.13-0.12c-0.01-0.02-0.03-0.05-0.07-0.07
			c-0.47-0.29-0.79-0.78-0.92-1.45c-0.15-0.76-0.02-1.43,0.36-1.93C41.81,58.33,42.29,58.09,42.86,58.06z M42.93,59.19
			c-0.32,0.04-0.59,0.2-0.79,0.5c-0.22,0.32-0.29,0.69-0.2,1.11c0.09,0.42,0.3,0.75,0.62,0.95c0.31,0.2,0.62,0.24,0.94,0.15
			c0.32-0.1,0.56-0.3,0.73-0.6c0.18-0.31,0.23-0.65,0.15-1.02c-0.07-0.36-0.25-0.64-0.55-0.85C43.56,59.23,43.26,59.15,42.93,59.19z
			"/>
		<path class="st2" d="M41.69,52.3c0.19,0.05,0.48,0.13,0.86,0.25c0.38,0.12,0.67,0.2,0.87,0.25c0.19,0.05,0.48,0.11,0.87,0.2
			c0.39,0.08,0.68,0.15,0.87,0.2c0.05,0.01,0.08,0.05,0.08,0.11c0,0.02-0.08,0.32-0.18,0.89c-0.01,0.04-0.11,0.04-0.31,0.01
			c-0.2-0.03-0.3-0.03-0.31,0c0,0.02,0.01,0.04,0.02,0.07c0.3,0.58,0.44,1.08,0.4,1.56c-0.05,0.65-0.26,1.08-0.69,1.3
			c-0.27,0.14-0.75,0.22-1.45,0.24c-0.63,0.01-1.16-0.04-1.6-0.17c-0.11-0.03-0.16-0.09-0.16-0.18c0-0.11,0-0.27,0.01-0.48
			c0.01-0.21,0.02-0.38,0.02-0.48c0-0.07,0.04-0.11,0.09-0.11c0.11,0.01,0.28,0.04,0.52,0.1c0.26,0.06,0.45,0.1,0.55,0.11
			c0.16,0.02,0.34,0.03,0.54,0.04c0.47,0.02,0.79,0,0.96-0.08c0.3-0.12,0.46-0.41,0.51-0.86c0.02-0.19-0.03-0.43-0.16-0.73
			c-0.13-0.31-0.27-0.49-0.43-0.53c-0.2-0.05-0.9-0.19-2.11-0.41c-0.13-0.02-0.18-0.11-0.15-0.26c0.07-0.36,0.11-0.54,0.2-0.9
			C41.54,52.32,41.6,52.28,41.69,52.3z"/>
		<path class="st2" d="M45.17,49.83c0.36,0.17,0.57,0.49,0.65,0.92c0.07,0.39,0.03,0.8-0.12,1.23c-0.06,0.17-0.09,0.27-0.11,0.29
			c-0.04,0.04-0.11,0.05-0.21,0.01c-0.06-0.02-0.14-0.04-0.26-0.06c-0.12-0.02-0.21-0.04-0.26-0.06c-0.03-0.01-0.05-0.04-0.04-0.1
			c0-0.04,0.02-0.1,0.05-0.17c0.04-0.09,0.06-0.13,0.06-0.13c0.19-0.56,0.17-0.9-0.12-1.01c-0.14-0.06-0.32,0.02-0.53,0.23
			c-0.35,0.35-0.54,0.56-0.61,0.61c-0.27,0.21-0.55,0.27-0.85,0.18c-0.39-0.12-0.64-0.4-0.72-0.88c-0.07-0.42,0-0.92,0.23-1.47
			c0.02-0.05,0.05-0.08,0.09-0.09c0.04-0.01,0.16-0.01,0.36,0c0.2,0.01,0.31,0.03,0.35,0.04c0.03,0.01,0.03,0.05,0.01,0.12
			c-0.07,0.22-0.16,0.46-0.21,0.68c-0.06,0.26,0.01,0.45,0.17,0.51c0.11,0.04,0.28-0.05,0.5-0.27c0.32-0.32,0.55-0.51,0.67-0.57
			C44.56,49.69,44.87,49.69,45.17,49.83z"/>
		<path class="st2" d="M46.68,43.56c0.01,0.01,0.02,0.03,0.04,0.06c0.33,0.55,0.67,0.97,0.99,1.29c0.02,0.02,0.49,0.41,1.39,1.19
			c0.02,0.01,0.03,0.02,0.04,0.04c0.06,0.05,0.06,0.11-0.01,0.17c-0.06,0.06-0.15,0.16-0.25,0.31c-0.11,0.14-0.19,0.24-0.24,0.31
			c-0.04,0.04-0.14,0.02-0.31-0.08c-0.16-0.1-0.26-0.14-0.28-0.12c-0.01,0.01-0.03,0.12-0.05,0.3c-0.02,0.23-0.05,0.43-0.09,0.59
			c-0.07,0.26-0.16,0.49-0.3,0.69c-0.34,0.49-0.77,0.8-1.34,0.96c-0.54,0.15-1.06,0.13-1.53-0.11c-0.54-0.27-0.89-0.7-1-1.3
			c-0.12-0.63,0.06-1.33,0.55-2.02c0.35-0.49,0.79-0.82,1.29-0.97c0.08-0.02,0.21-0.04,0.38-0.08c0.01,0,0.02-0.01,0.03-0.02
			c0.02-0.02-0.03-0.1-0.13-0.24c-0.1-0.14-0.13-0.24-0.08-0.29c0.07-0.08,0.22-0.22,0.45-0.4C46.5,43.61,46.65,43.53,46.68,43.56z
			 M46.95,45.76c-0.25-0.22-0.56-0.3-0.91-0.24c-0.38,0.06-0.72,0.27-0.98,0.64c-0.26,0.37-0.36,0.75-0.3,1.13
			c0.06,0.37,0.24,0.63,0.52,0.8c0.28,0.17,0.59,0.2,0.93,0.12c0.35-0.09,0.64-0.29,0.86-0.6c0.22-0.31,0.32-0.64,0.29-1.01
			C47.33,46.26,47.2,45.97,46.95,45.76z"/>
	</g>
</g>
<path class="st3" d="M84.03,69c3.2,1.67,6.08,1.34,6.08,1.34v9.79h-6.08"/>
</svg>
