<?xml version="1.0" encoding="utf-8"?>
<!-- Generator: Adobe Illustrator 25.0.0, SVG Export Plug-In . SVG Version: 6.00 Build 0)  -->
<svg version="1.1" id="Layer_1" xmlns="http://www.w3.org/2000/svg" xmlns:xlink="http://www.w3.org/1999/xlink" x="0px" y="0px"
	 viewBox="0 0 128 128" style="enable-background:new 0 0 128 128;" xml:space="preserve">
<style type="text/css">
	.st0{fill:url(#SVGID_1_);}
	.st1{fill:#2C4D9D;}
	.st2{fill:#262262;}
	.st3{fill:#282567;}
</style>
<linearGradient id="SVGID_1_" gradientUnits="userSpaceOnUse" x1="1.8437" y1="63.4337" x2="115.0907" y2="63.4337">
	<stop  offset="0" style="stop-color:#262262"/>
	<stop  offset="6.872653e-03" style="stop-color:#272364"/>
	<stop  offset="0.0723" style="stop-color:#2B2976"/>
	<stop  offset="0.1391" style="stop-color:#2D2D84"/>
	<stop  offset="0.2078" style="stop-color:#2E2F8D"/>
	<stop  offset="0.2809" style="stop-color:#2E3192"/>
	<stop  offset="0.3177" style="stop-color:#2D3F99"/>
	<stop  offset="0.4457" style="stop-color:#2C6BB4"/>
	<stop  offset="0.5508" style="stop-color:#2A8BCB"/>
	<stop  offset="0.6278" style="stop-color:#28A1DB"/>
	<stop  offset="0.6685" style="stop-color:#27AAE1"/>
	<stop  offset="0.8876" style="stop-color:#262262"/>
	<stop  offset="1" style="stop-color:#262262"/>
</linearGradient>
<path class="st0" d="M107.57,1.84c-10.82,0-19.6,5.38-19.6,12.03v0.45C78.98,6.48,67.76,1.84,55.58,1.84
	c-29.66,0-53.74,27.59-53.74,61.59c0,34,24.08,61.59,53.74,61.59c12.18,0,23.39-4.64,32.39-12.48v0.45c0,6.65,8.78,12.03,19.6,12.03
	c0,0,5.48,0,5.48,0c2.83-0.29,1.92-10.22,1.85-12.08c-0.24-6.09-0.87-12.15-1.54-18.2c-1.56-14.11-0.3-28.56-0.3-42.74
	c0-16.17,0-32.33,0-48.5c0-0.08,0-1.66,0-1.66C113.05,1.84,107.57,1.84,107.57,1.84z M109.25,66.14
	c-0.82,16.51-9.24,30.67-21.28,38.06c-5.62,3.45-12.07,5.42-18.95,5.42c-22.25,0-40.3-20.69-40.3-46.19
	c0-25.5,18.06-46.19,40.3-46.19c6.88,0,13.33,1.97,18.95,5.42c12.04,7.39,20.46,21.56,21.28,38.06c0.04,0.9,0.07,1.81,0.07,2.71
	C109.32,64.34,109.29,65.24,109.25,66.14z"/>
<path class="st1" d="M109.25,60.72c-0.82-16.51-9.24-30.67-21.28-38.06c-5.62-3.45-12.07-5.42-18.95-5.42
	c-21.1,0-38.39,18.61-40.13,42.28c1.71-19.3,15.93-34.36,33.23-34.36c18.45,0,33.4,17.14,33.4,38.28s-14.95,38.28-33.4,38.28
	c-17.29,0-31.52-15.06-33.23-34.36c1.74,23.66,19.04,42.28,40.13,42.28c6.88,0,13.33-1.97,18.95-5.42
	c12.04-7.39,20.46-21.56,21.28-38.06c0.04-0.9,0.07-1.81,0.07-2.71C109.32,62.53,109.29,61.63,109.25,60.72z"/>
<g>
	<g>
	</g>
</g>
<path class="st2" d="M113.05,95.39c7.32,4.45,13.93,3.56,13.93,3.56v26.07h-13.93"/>
<g>
	<g>
		<path class="st3" d="M47.44,80.78c0,0.2-0.1,0.26-0.29,0.19c-0.15-0.06-0.37-0.17-0.66-0.34c-0.29-0.17-0.51-0.29-0.66-0.35
			c-0.15-0.06-0.38-0.14-0.67-0.23c-0.3-0.09-0.52-0.17-0.67-0.24c-0.22-0.1-0.5-1.42-0.83-3.84c-0.34-2.43-0.68-3.65-1.02-3.78
			c-0.28-0.11-1.02-0.35-2.19-0.75c-0.71-0.24-1.06-0.37-1.74-0.63c-1.2-0.46-1.86-0.73-2.02-0.78c-0.25-0.07-0.52,0.66-0.8,2.05
			c-0.28,1.4-0.5,1.96-0.65,1.83c-0.92-0.77-1.38-1.17-2.26-2.01c-0.13-0.12-0.2-0.24-0.2-0.35c0-0.08,0.05-0.21,0.14-0.41
			c0.96-2.36,1.45-4.02,2.46-8.08c0.21-0.82,0.86-3.1,1.97-8.1c0.2-0.84,0.47-2.11,0.82-3.89c0.09-0.52,0.18-0.82,0.28-0.89
			c0.14-0.1,0.34-0.21,0.61-0.33c0.27-0.12,0.48-0.22,0.62-0.31c0.13-0.09,0.33-0.25,0.61-0.5c0.27-0.24,0.47-0.41,0.6-0.48
			c0.07-0.04,0.16,0.15,0.28,0.6c0.18,0.67,1.06,4.12,2.72,12.35C46.2,73.08,47.44,80.66,47.44,80.78z M41.98,66.43
			c0-0.41-0.35-2.37-1.02-5.47c-0.65-3.01-1.11-4.76-1.37-5.56c-1.52,7.41-2.25,10.15-2.25,10.43c0,0.39,0.27,0.67,0.82,0.84
			c0.03,0.02,0.38,0.09,1.07,0.2c0.45,0.08,0.68,0.11,1.14,0.18C41.43,67.21,41.98,67,41.98,66.43z"/>
		<path class="st3" d="M61.19,69.9c0,3.87-0.52,7.25-1.56,10.03c-1.11,2.95-2.49,4.27-4.12,3.96c-1.09-0.21-2.04-1.06-2.86-2.46
			c-0.33-0.7-0.66-1.39-0.99-2.06c-0.09,0.03-0.15,0.56-0.18,1.58c-0.03,1.02-0.1,1.51-0.2,1.48c-1.04-0.3-1.56-0.47-2.58-0.83
			c-0.1-0.03-0.15-0.16-0.15-0.39c0,0.02,0.01-0.14,0.02-0.45c0.13-2.7,0.19-7.94,0.19-15.71c0-3.18-0.07-7.86-0.19-13.95
			c-0.08-3.88-0.12-5.57-0.12-5.09c0-0.44,0.11-0.75,0.32-0.86c0.26-0.13,0.74-0.3,1.3-0.55c0.11-0.05,0.36-0.19,0.7-0.41
			c0.29-0.19,0.53-0.32,0.71-0.38c0.13-0.04,0.2,0.15,0.2,0.57c0,0.61-0.02,1.56-0.06,2.83c-0.04,1.27-0.06,2.22-0.06,2.85
			c0,0.94-0.02,2.35-0.06,4.24c-0.04,1.89-0.06,3.3-0.06,4.23c0,0.68,0.06,1.02,0.17,1.02c0.06,0,0.12-0.11,0.19-0.31
			c0.91-2.53,2.11-3.95,3.63-4.07c1.73-0.14,3.16,1.28,4.24,4.28C60.68,62.26,61.19,65.77,61.19,69.9z M58.31,69.55
			c0-2.3-0.32-4.34-0.95-6.08c-0.67-1.86-1.5-2.76-2.48-2.73c-1,0.03-1.83,0.95-2.5,2.68c-0.63,1.64-0.95,3.53-0.95,5.72
			c0,2.23,0.32,4.19,0.95,5.93c0.66,1.82,1.5,2.85,2.52,3c0.99,0.15,1.82-0.67,2.48-2.48C58.01,73.92,58.31,71.89,58.31,69.55z"/>
		<path class="st3" d="M74.73,57.81c0,1.34-0.03,3.37-0.07,6.09s-0.07,4.76-0.07,6.12c0,1.34,0.02,3.36,0.06,6.03
			c0.04,2.67,0.06,4.68,0.06,6.02c0,0.37-0.08,0.63-0.24,0.77c-0.07,0.05-0.91,0.29-2.54,0.59c-0.1,0.02-0.16-0.68-0.18-2.1
			c-0.02-1.42-0.07-2.13-0.15-2.12c-0.04,0.01-0.1,0.1-0.19,0.28c-1.4,2.95-2.8,4.54-4.18,4.64c-1.88,0.14-3.12-1.45-3.72-4.59
			c-0.37-1.95-0.56-5.44-0.56-10.49c0-4.55,0.16-8.41,0.47-11.57c0.08-0.77,0.22-1.15,0.42-1.15c0.25,0,0.62,0.01,1.11,0.03
			c0.49,0.02,0.86,0.04,1.11,0.04c0.17,0,0.26,0.22,0.26,0.65c0,0.76-0.05,2.04-0.17,3.82c-0.12,1.9-0.18,3.25-0.19,4.02
			c-0.02,1.17-0.04,2.47-0.04,3.88c0,3.43,0.11,5.73,0.32,6.9c0.37,2.1,1.18,3.13,2.43,3.03c0.53-0.04,1.16-0.71,1.89-1.96
			c0.76-1.32,1.16-2.55,1.19-3.69c0.04-1.42,0.06-6.44,0.06-15.04c0-0.93,0.17-1.39,0.52-1.36c0.83,0.05,1.24,0.08,2.07,0.15
			C74.61,56.84,74.73,57.17,74.73,57.81z"/>
		<path class="st3" d="M82.88,72.74c0,2.34-0.46,4.36-1.41,6.19c-0.86,1.66-1.91,2.79-3.17,3.22c-0.49,0.17-0.77,0.23-0.83,0.19
			c-0.14-0.1-0.21-0.51-0.21-1.24c0-0.39-0.02-0.97-0.07-1.74c-0.05-0.77-0.07-1.34-0.07-1.72c0-0.23,0.08-0.4,0.22-0.5
			c0.11-0.08,0.26-0.11,0.45-0.1c0.24,0,0.38-0.01,0.37-0.01c1.54-0.38,2.29-1.58,2.29-3.51c0-0.92-0.33-1.69-1-2.36
			c-1.09-1.09-1.72-1.85-1.89-2.13c-0.68-1.19-1.02-2.85-1.02-4.91c0-2.69,0.46-4.79,1.39-6.17c0.83-1.23,1.88-1.72,3.12-1.51
			c0.11,0.02,0.19,0.14,0.24,0.36c0.05,0.22,0.15,0.9,0.3,2.02c0.15,1.12,0.22,1.79,0.22,2.01c0,0.18-0.08,0.29-0.23,0.33
			c-0.51,0.12-1.11,0.19-1.54,0.34c-0.57,0.21-0.93,1.04-0.93,2.12c0,0.77,0.33,1.55,0.98,2.29c0.96,1.07,1.56,1.79,1.82,2.24
			C82.56,69.33,82.88,70.83,82.88,72.74z"/>
		<path class="st3" d="M94.97,61.08c0,0.03-0.01,0.1-0.03,0.2c-0.25,1.74-0.38,3.4-0.38,4.77c0,0.08,0.08,1.95,0.25,5.31
			c0,0.06,0.01,0.1,0.01,0.16c0.01,0.23-0.08,0.42-0.26,0.59c-0.18,0.17-0.45,0.45-0.82,0.84c-0.37,0.39-0.65,0.67-0.83,0.83
			c-0.13,0.11-0.23-0.14-0.3-0.78c-0.07-0.64-0.13-0.94-0.2-0.9c-0.04,0.03-0.23,0.34-0.56,0.98c-0.41,0.79-0.8,1.47-1.16,2.02
			c-0.56,0.86-1.13,1.52-1.7,1.92c-1.41,0.98-2.65,0.72-3.66-1.09c-0.96-1.72-1.45-4.27-1.45-7.28c0-3.38,0.5-6.24,1.47-8.24
			c1.01-2.08,2.34-2.75,3.91-2.3c1.11,0.31,2.05,1.25,2.83,2.5c0.12,0.23,0.3,0.56,0.55,0.97c0.02,0.03,0.04,0.05,0.06,0.05
			c0.04,0.01,0.1-0.29,0.17-0.89c0.08-0.59,0.17-0.86,0.28-0.82c0.18,0.06,0.53,0.23,1.01,0.51C94.71,60.76,94.97,60.97,94.97,61.08
			z M92.42,66.69c0-1.23-0.25-2.23-0.76-3.16c-0.54-1-1.23-1.63-2.09-1.71c-0.87-0.08-1.6,0.45-2.2,1.71
			c-0.57,1.21-0.86,2.73-0.86,4.42c0,1.68,0.29,3.09,0.86,4.07c0.6,1.03,1.33,1.26,2.2,0.81c0.84-0.43,1.53-1.38,2.08-2.65
			C92.17,68.99,92.42,67.88,92.42,66.69z"/>
	</g>
</g>
</svg>
