<?xml version="1.0" encoding="utf-8"?>
<!-- Generator: Adobe Illustrator 25.0.0, SVG Export Plug-In . SVG Version: 6.00 Build 0)  -->
<svg version="1.1" id="Layer_1" xmlns="http://www.w3.org/2000/svg" xmlns:xlink="http://www.w3.org/1999/xlink" x="0px" y="0px"
	 viewBox="0 0 128 128" style="enable-background:new 0 0 128 128;" xml:space="preserve">
<style type="text/css">
	.st0{fill:url(#SVGID_1_);}
	.st1{fill:#2C4D9D;}
	.st2{fill:#262262;}
	.st3{fill:#282567;}
</style>
<linearGradient id="SVGID_1_" gradientUnits="userSpaceOnUse" x1="37.9428" y1="55.8434" x2="86.3313" y2="55.8434">
	<stop  offset="0" style="stop-color:#262262"/>
	<stop  offset="6.872653e-03" style="stop-color:#272364"/>
	<stop  offset="0.0723" style="stop-color:#2B2976"/>
	<stop  offset="0.1391" style="stop-color:#2D2D84"/>
	<stop  offset="0.2078" style="stop-color:#2E2F8D"/>
	<stop  offset="0.2809" style="stop-color:#2E3192"/>
	<stop  offset="0.3177" style="stop-color:#2D3F99"/>
	<stop  offset="0.4457" style="stop-color:#2C6BB4"/>
	<stop  offset="0.5508" style="stop-color:#2A8BCB"/>
	<stop  offset="0.6278" style="stop-color:#28A1DB"/>
	<stop  offset="0.6685" style="stop-color:#27AAE1"/>
	<stop  offset="0.8876" style="stop-color:#262262"/>
	<stop  offset="1" style="stop-color:#262262"/>
</linearGradient>
<path class="st0" d="M83.12,31.77c-4.62,0-8.37,2.1-8.37,4.7v0.18c-3.84-3.07-8.63-4.88-13.84-4.88
	c-12.67,0-22.96,10.78-22.96,24.07c0,13.29,10.29,24.07,22.96,24.07c5.2,0,10-1.81,13.84-4.88v0.18c0,2.6,3.75,4.7,8.37,4.7
	c0,0,2.34,0,2.34,0c1.21-0.11,0.82-3.99,0.79-4.72c-0.1-2.38-0.37-4.75-0.66-7.11c-0.67-5.51-0.13-11.16-0.13-16.7
	c0-6.32,0-12.64,0-18.95c0-0.03,0-0.65,0-0.65C85.46,31.77,83.12,31.77,83.12,31.77z M83.84,56.9c-0.35,6.45-3.95,11.99-9.09,14.88
	c-2.4,1.35-5.16,2.12-8.1,2.12c-9.51,0-17.22-8.09-17.22-18.05c0-9.97,7.72-18.05,17.22-18.05c2.94,0,5.69,0.77,8.1,2.12
	c5.14,2.89,8.74,8.43,9.09,14.88c0.02,0.35,0.03,0.71,0.03,1.06C83.87,56.2,83.85,56.55,83.84,56.9z"/>
<path class="st1" d="M83.84,54.78c-0.35-6.45-3.95-11.99-9.09-14.88c-2.4-1.35-5.16-2.12-8.1-2.12c-9.01,0-16.4,7.28-17.15,16.52
	c0.73-7.54,6.81-13.43,14.2-13.43c7.88,0,14.27,6.7,14.27,14.96S71.58,70.8,63.69,70.8c-7.39,0-13.47-5.89-14.2-13.43
	c0.74,9.25,8.13,16.52,17.15,16.52c2.94,0,5.69-0.77,8.1-2.12c5.14-2.89,8.74-8.43,9.09-14.88c0.02-0.35,0.03-0.71,0.03-1.06
	C83.87,55.49,83.85,55.14,83.84,54.78z"/>
<g>
	<g>
	</g>
</g>
<path class="st2" d="M85.46,68.33c3.13,1.74,5.95,1.39,5.95,1.39v10.19h-5.95"/>
<g>
	<g>
		<path class="st3" d="M57.73,62.93c0,0.08-0.04,0.11-0.12,0.08c-0.06-0.02-0.15-0.07-0.27-0.14c-0.12-0.07-0.21-0.12-0.27-0.14
			c-0.06-0.03-0.15-0.06-0.28-0.09c-0.12-0.04-0.21-0.07-0.27-0.1c-0.09-0.04-0.2-0.58-0.34-1.57c-0.14-0.99-0.28-1.49-0.42-1.55
			c-0.12-0.05-0.42-0.14-0.89-0.3c-0.29-0.1-0.43-0.15-0.71-0.26c-0.49-0.19-0.76-0.3-0.82-0.32c-0.1-0.03-0.21,0.27-0.33,0.84
			c-0.11,0.57-0.2,0.8-0.26,0.75c-0.38-0.31-0.56-0.48-0.92-0.82c-0.05-0.05-0.08-0.1-0.08-0.14c0-0.03,0.02-0.09,0.06-0.17
			c0.39-0.96,0.59-1.64,1.01-3.3c0.09-0.33,0.35-1.26,0.81-3.31c0.08-0.34,0.19-0.86,0.33-1.59c0.04-0.21,0.07-0.33,0.12-0.36
			c0.06-0.04,0.14-0.09,0.25-0.13c0.11-0.05,0.19-0.09,0.25-0.13c0.05-0.04,0.14-0.1,0.25-0.2c0.11-0.1,0.19-0.17,0.24-0.2
			c0.03-0.02,0.07,0.06,0.12,0.25c0.07,0.27,0.43,1.68,1.11,5.05C57.23,59.78,57.73,62.88,57.73,62.93z M55.5,57.07
			c0-0.17-0.14-0.97-0.42-2.24c-0.27-1.23-0.45-1.94-0.56-2.27c-0.62,3.03-0.92,4.15-0.92,4.26c0,0.16,0.11,0.27,0.33,0.34
			c0.01,0.01,0.16,0.04,0.44,0.08c0.18,0.03,0.28,0.05,0.47,0.08C55.27,57.39,55.5,57.3,55.5,57.07z"/>
		<path class="st3" d="M63.35,58.48c0,1.58-0.21,2.96-0.64,4.1c-0.45,1.21-1.02,1.75-1.69,1.62c-0.45-0.09-0.83-0.43-1.17-1.01
			c-0.14-0.29-0.27-0.57-0.4-0.84c-0.04,0.01-0.06,0.23-0.07,0.65c-0.01,0.42-0.04,0.62-0.08,0.61c-0.43-0.12-0.64-0.19-1.05-0.34
			c-0.04-0.01-0.06-0.07-0.06-0.16c0,0.01,0-0.05,0.01-0.18c0.05-1.1,0.08-3.25,0.08-6.42c0-1.3-0.03-3.21-0.08-5.7
			c-0.03-1.59-0.05-2.28-0.05-2.08c0-0.18,0.05-0.31,0.13-0.35c0.11-0.05,0.3-0.12,0.53-0.22c0.05-0.02,0.15-0.08,0.29-0.17
			c0.12-0.08,0.22-0.13,0.29-0.15c0.05-0.02,0.08,0.06,0.08,0.23c0,0.25-0.01,0.64-0.03,1.16c-0.02,0.52-0.03,0.91-0.03,1.17
			c0,0.38-0.01,0.96-0.02,1.73c-0.02,0.77-0.02,1.35-0.02,1.73c0,0.28,0.02,0.42,0.07,0.41c0.02,0,0.05-0.04,0.08-0.13
			c0.37-1.04,0.86-1.61,1.48-1.66c0.71-0.06,1.29,0.52,1.73,1.75C63.14,55.36,63.35,56.8,63.35,58.48z M62.17,58.34
			c0-0.94-0.13-1.77-0.39-2.49c-0.28-0.76-0.61-1.13-1.01-1.12c-0.41,0.01-0.75,0.39-1.02,1.09c-0.26,0.67-0.39,1.44-0.39,2.34
			c0,0.91,0.13,1.71,0.39,2.42c0.27,0.74,0.61,1.17,1.03,1.23c0.4,0.06,0.74-0.28,1.01-1.01C62.05,60.13,62.17,59.3,62.17,58.34z"/>
		<path class="st3" d="M68.89,53.55c0,0.55-0.01,1.38-0.03,2.49s-0.03,1.95-0.03,2.5c0,0.55,0.01,1.37,0.02,2.47
			c0.02,1.09,0.02,1.91,0.02,2.46c0,0.15-0.03,0.26-0.1,0.32c-0.03,0.02-0.37,0.12-1.04,0.24c-0.04,0.01-0.07-0.28-0.08-0.86
			c-0.01-0.58-0.03-0.87-0.06-0.87c-0.02,0-0.04,0.04-0.08,0.12c-0.57,1.2-1.14,1.86-1.71,1.9c-0.77,0.06-1.27-0.59-1.52-1.88
			c-0.15-0.8-0.23-2.22-0.23-4.29c0-1.86,0.06-3.44,0.19-4.73c0.03-0.31,0.09-0.47,0.17-0.47c0.1,0,0.25,0.01,0.45,0.01
			c0.2,0.01,0.35,0.02,0.45,0.02c0.07,0,0.11,0.09,0.11,0.27c0,0.31-0.02,0.83-0.07,1.56c-0.05,0.78-0.07,1.33-0.08,1.64
			c-0.01,0.48-0.02,1.01-0.02,1.59c0,1.4,0.04,2.34,0.13,2.82c0.15,0.86,0.48,1.28,0.99,1.24c0.22-0.02,0.47-0.29,0.77-0.8
			c0.31-0.54,0.47-1.04,0.49-1.51c0.01-0.58,0.02-2.63,0.02-6.15c0-0.38,0.07-0.57,0.21-0.56c0.34,0.02,0.51,0.03,0.84,0.06
			C68.84,53.15,68.89,53.28,68.89,53.55z"/>
		<path class="st3" d="M72.22,59.65c0,0.96-0.19,1.78-0.58,2.53c-0.35,0.68-0.78,1.14-1.3,1.32c-0.2,0.07-0.31,0.09-0.34,0.08
			c-0.06-0.04-0.09-0.21-0.09-0.51c0-0.16-0.01-0.4-0.03-0.71c-0.02-0.31-0.03-0.55-0.03-0.7c0-0.09,0.03-0.16,0.09-0.21
			c0.04-0.03,0.11-0.04,0.19-0.04c0.1,0,0.15,0,0.15,0c0.63-0.15,0.93-0.64,0.93-1.44c0-0.37-0.13-0.69-0.41-0.97
			c-0.45-0.45-0.7-0.76-0.77-0.87c-0.28-0.49-0.42-1.16-0.42-2.01c0-1.1,0.19-1.96,0.57-2.52c0.34-0.5,0.77-0.7,1.27-0.62
			c0.05,0.01,0.08,0.06,0.1,0.15c0.02,0.09,0.06,0.37,0.12,0.83s0.09,0.73,0.09,0.82c0,0.07-0.03,0.12-0.09,0.13
			c-0.21,0.05-0.45,0.08-0.63,0.14c-0.23,0.09-0.38,0.43-0.38,0.87c0,0.32,0.13,0.63,0.4,0.94c0.39,0.44,0.64,0.73,0.74,0.92
			C72.08,58.25,72.22,58.86,72.22,59.65z"/>
		<path class="st3" d="M77.15,54.88c0,0.01,0,0.04-0.01,0.08c-0.1,0.71-0.16,1.39-0.16,1.95c0,0.03,0.03,0.8,0.1,2.17
			c0,0.03,0,0.04,0,0.07c0,0.09-0.03,0.17-0.11,0.24s-0.19,0.18-0.34,0.34c-0.15,0.16-0.27,0.27-0.34,0.34
			c-0.05,0.05-0.09-0.06-0.12-0.32c-0.03-0.26-0.05-0.39-0.08-0.37c-0.02,0.01-0.09,0.14-0.23,0.4c-0.17,0.32-0.33,0.6-0.47,0.82
			c-0.23,0.35-0.46,0.62-0.7,0.79c-0.58,0.4-1.08,0.29-1.5-0.44c-0.39-0.7-0.59-1.75-0.59-2.97c0-1.38,0.2-2.55,0.6-3.37
			c0.41-0.85,0.95-1.12,1.6-0.94c0.45,0.13,0.84,0.51,1.16,1.02c0.05,0.09,0.12,0.23,0.22,0.4c0.01,0.01,0.02,0.02,0.03,0.02
			c0.02,0,0.04-0.12,0.07-0.36c0.03-0.24,0.07-0.35,0.12-0.34c0.07,0.02,0.22,0.1,0.41,0.21C77.05,54.75,77.15,54.83,77.15,54.88z
			 M76.11,57.17c0-0.5-0.1-0.91-0.31-1.29c-0.22-0.41-0.5-0.67-0.86-0.7s-0.66,0.18-0.9,0.7c-0.23,0.49-0.35,1.12-0.35,1.81
			c0,0.69,0.12,1.26,0.35,1.66c0.24,0.42,0.55,0.51,0.9,0.33c0.34-0.18,0.63-0.56,0.85-1.08C76.01,58.11,76.11,57.66,76.11,57.17z"
			/>
	</g>
</g>
</svg>
